<svg xmlns="http://www.w3.org/2000/svg" width="480" height="480" viewBox="0 0 360 360"><path d="M186 67.9c-6.1 2-11.1 4.4-13.2 6.4-.7.7-5.1 2.1-9.8 3.1-17.2 3.6-36 12.7-49.1 23.8l-4.8 4-5.4-3.5c-11.2-7.4-24.3-9.6-32.6-5.3-9.1 4.8-16.1 16-16.1 26.1.1 11.1 5.9 19 19 25.9 3.8 2.1 7 3.9 7 4.2s-.9 4.1-2 8.5c-5 19.4-6.3 42.6-3.8 67.5l1.2 12.1-6.6 8.4c-7.4 9.5-16 22.3-23.7 35.2l-5.2 8.7 2.9 3.8c8.5 10.7 29.2 28.4 42.7 36.4 30.5 18.2 58.9 26.1 94 26.1 39.3 0 72.2-10.4 104.7-33.3 9.3-6.6 26.3-22.1 32-29.2l3-3.9-3.3-7.6c-1.8-4.2-7.1-14.5-11.7-22.7-12.9-23.1-11.7-17.5-11.7-54.1-.1-25.5-.4-34.2-1.8-42.8-1-5.9-2-11.4-2.3-12.1-.3-.8 1.5-2.3 4.8-3.9 16.6-8.1 22.8-22.9 16.6-39.4-2.9-7.8-11.4-16.4-18-18.2-6.3-1.8-10.5-.9-21 4.6l-8.8 4.5-4.6-4.1c-13.3-11.6-31.4-19.8-48.1-21.6-3.2-.3-7.4-.8-9.3-1.1l-3.5-.6 2.5-1.4 2.5-1.3H199c-1.9 0-5.2.6-7.2 1.3-2.1.8-3.8 1.2-3.8.9 0-1.2 3.1-6.2 4.2-6.6 3.1-1.3-1.2-.4-6.2 1.2zm-23.6 52.8c8.7.7 10.6 2.4 10.6 9v4.8h26v-4.8c0-6.7 1.9-8.3 11.1-9 18.3-1.5 31.2-1.8 41.3-.8 13.1 1.3 16.4 2.9 18.3 8.8 1.1 3.2 2.6 4.9 6.3 7.3 5.1 3.3 5.4 3.8 6.6 10.4.6 3.3.4 3.8-.9 3.3-.9-.3-3.1-.9-5-1.2l-3.4-.7-.5 9.9c-.5 10-2.5 16.6-5.4 17.7-.8.3-6.2 1-12.1 1.6-16.2 1.7-21.9.6-38.8-7.3-7.7-3.6-14.5-7.1-15.2-7.6-.6-.5-1.4-5.7-1.8-11.4l-.7-10.5-5.1-.6c-2.7-.4-8.5-.4-12.7 0l-7.7.6-.5 10.5c-.5 11.9-1.1 12.8-9.3 15.8-2.7 1-8.8 3.7-13.5 6-6.6 3.3-10.1 4.4-15.9 4.9-9.8 1-28.5-1.1-30.5-3.3-2.3-2.5-4.6-12.7-4.6-19.9v-6.4l-3.6.6c-1.9.4-4.2 1-5 1.3-1.3.5-1.4-.1-.9-3.3 1.1-6.7 1.5-7.2 6.5-10.4 3.7-2.4 5.1-4 6.2-7.3 1.8-5.5 5.5-7.6 16-8.7 8.3-.9 31.2-.5 44.2.7z"/></svg>